<svg width="19" height="24" viewBox="0 0 19 24" fill="none" xmlns="http://www.w3.org/2000/svg">
<path d="M2.07056 21.7055H1.6744C1.6744 21.4242 1.48985 21.276 1.26607 21.276C0.942451 21.276 0.797297 21.5271 0.797297 21.9415V22.0926C0.797297 22.5161 0.945494 22.758 1.26903 22.758C1.50498 22.758 1.6744 22.5614 1.6744 22.259H1.20858V21.9263H2.07056V23.0544H1.81955L1.75294 22.8246C1.61996 23 1.41732 23.0907 1.19954 23.0907C0.691453 23.0907 0.39801 22.755 0.39801 22.017C0.39801 21.2852 0.718671 20.9434 1.27816 20.9434C1.69553 20.9434 2.07056 21.2095 2.07056 21.7055" fill="#01050B"/>
<path d="M2.40588 20.9796H2.79299V22.6915H3.6701V23.0544H2.40588V20.9796" fill="#01050B"/>
<path d="M3.92389 20.9796H4.311V22.3921C4.311 22.631 4.42893 22.758 4.63462 22.758C4.8403 22.758 4.96128 22.631 4.96128 22.3921V20.9796H5.34839V22.4041C5.34839 22.8548 5.07921 23.0907 4.63462 23.0907C4.19002 23.0907 3.92389 22.8548 3.92389 22.4041V20.9796" fill="#01050B"/>
<path d="M6.99639 21.3245H6.48221V23.0544H6.09511V21.3245H5.58093V20.9796H6.99639V21.3245Z" fill="#01050B"/>
<path d="M7.22601 23.0544V20.9796H8.54763V21.3245H7.61312V21.8205H8.41456V22.1652H7.61312V22.7096H8.56581V23.0544H7.22601" fill="#01050B"/>
<path d="M9.96271 23.0544L9.32156 21.9112C9.29738 21.8688 9.2278 21.7176 9.2278 21.7176L9.21571 21.7267C9.21571 21.7267 9.2218 21.8447 9.2218 21.8991V23.0544H8.88V20.9796H9.2218L9.86295 22.1229C9.89626 22.1743 9.95671 22.3165 9.95671 22.3165L9.96584 22.3073C9.96584 22.3073 9.96271 22.1683 9.96271 22.1351V20.9796H10.3076V23.0544H9.96271" fill="#01050B"/>
<path d="M11.3597 23.0544V20.9796H12.5785V21.3245H11.7468V21.8477H12.4575V22.1925H11.7468V23.0544H11.3597" fill="#01050B"/>
<path d="M13.2617 21.3245V21.8477H13.6882C13.8758 21.8477 13.9604 21.7448 13.9604 21.5724C13.9604 21.4213 13.8818 21.3245 13.7033 21.3245H13.2617ZM13.2617 22.1894V23.0544H12.8746V20.9796H13.7426C14.163 20.9796 14.3778 21.2307 14.3778 21.5724C14.3778 21.8235 14.2447 22.017 14.03 22.1047L14.4292 23.0544H14.0087L13.664 22.1894H13.2617" fill="#01050B"/>
<path d="M14.6647 23.0544V20.9796H15.9864V21.3245H15.0519V21.8205H15.8534V22.1652H15.0519V22.7096H16.0046V23.0544H14.6647" fill="#01050B"/>
<path d="M16.3188 23.0544V20.9796H17.6406V21.3245H16.706V21.8205H17.5074V22.1652H16.706V22.7096H17.6586V23.0544H16.3188" fill="#01050B"/>
<path d="M9.04336 1.19846C6.94796 1.19846 4.97798 2.01425 3.49633 3.4959C2.01469 4.97754 1.19864 6.94752 1.19864 9.04292C1.19864 11.1382 2.01469 13.1082 3.49633 14.5899C4.97798 16.0715 6.94796 16.8876 9.04336 16.8876C11.1387 16.8876 13.1087 16.0715 14.5903 14.5899C16.0719 13.1082 16.8879 11.1382 16.8879 9.04292C16.8879 6.94752 16.0719 4.97754 14.5903 3.4959C13.1087 2.01425 11.1387 1.19846 9.04336 1.19846ZM9.04336 18.0862C7.82272 18.0862 6.63835 17.847 5.52311 17.3753C4.44615 16.9197 3.47912 16.2678 2.64871 15.4375C1.8184 14.6072 1.16646 13.6401 0.710905 12.5631C0.239173 11.4479 0 10.2635 0 9.04292C0 7.82237 0.239173 6.638 0.710905 5.52268C1.16646 4.44571 1.8184 3.47868 2.64871 2.64828C3.47912 1.8177 4.44615 1.16629 5.52311 0.710556C6.63835 0.239172 7.82272 -6.44602e-07 9.04336 -6.44602e-07C10.2639 -6.44602e-07 11.4483 0.239172 12.5635 0.710556C13.6405 1.16629 14.6076 1.8177 15.4379 2.64828C16.2682 3.47868 16.9202 4.44571 17.3757 5.52268C17.8475 6.638 18.0866 7.82237 18.0866 9.04292C18.0866 10.2635 17.8475 11.4479 17.3757 12.5631C16.9202 13.6401 16.2682 14.6072 15.4379 15.4375C14.6076 16.2678 13.6405 16.9197 12.5635 17.3753C11.4483 17.847 10.2639 18.0862 9.04336 18.0862Z" fill="#0D6EFD"/>
<path d="M5.41403 13.4014C5.17582 13.2024 4.95335 12.9748 4.74705 12.7196L2.83429 14.7453L3.70574 15.5682L5.60754 13.5542C5.54284 13.5059 5.4783 13.4551 5.41403 13.4014" fill="#0D6EFD"/>
<path d="M12.0264 5.58041C12.2616 5.55945 12.4145 5.55849 12.4312 5.55841C12.4317 5.55841 12.4321 5.55841 12.4325 5.55841C12.623 5.55841 12.8017 5.65103 12.9114 5.80662C12.9132 5.80915 12.9147 5.81176 12.9165 5.81429L15.2524 3.34056L14.3809 2.51781L11.4082 5.66556C11.6352 5.62303 11.8465 5.5965 12.0264 5.58041" fill="#0D6EFD"/>
<path d="M7.71841 11.3785C8.26816 11.8466 8.64918 12.4962 8.64683 13.3978C8.64683 13.3978 7.2105 13.8489 5.78973 12.9518C7.32939 14.2384 9.05577 13.6963 9.05577 13.6963C9.05864 12.5847 8.4788 11.8561 7.71841 11.3785" fill="#0D6EFD"/>
<path d="M7.94572 8.77931C8.38031 9.16225 8.67863 9.68868 8.67671 10.4124C8.67671 10.4124 7.52017 10.7756 6.36371 10.0687C7.63906 11.1651 9.08565 10.7109 9.08565 10.7109C9.08809 9.77705 8.59069 9.17173 7.94572 8.77931" fill="#0D6EFD"/>
<path d="M8.708 7.90115C8.708 7.90115 7.84473 8.17198 6.96588 7.66381C7.96362 8.56161 9.11694 8.19973 9.11694 8.19973C9.11885 7.45177 8.70661 6.9763 8.18217 6.67373C8.49666 6.96682 8.7093 7.36358 8.708 7.90115Z" fill="#0D6EFD"/>
<path d="M8.64685 13.3978C8.6492 12.4962 8.26817 11.8466 7.71843 11.3784C6.27697 10.473 4.18652 10.4695 4.18652 10.4695C4.61677 11.6693 5.18904 12.4498 5.78975 12.9518C7.21051 13.8489 8.64685 13.3978 8.64685 13.3978Z" fill="#F2D231"/>
<path d="M8.67669 10.4124C8.6786 9.68869 8.38029 9.16226 7.94569 8.77932C6.76141 8.05885 5.07947 8.05607 5.07947 8.05607C5.42509 9.01989 5.88213 9.65486 6.36369 10.0688C7.52014 10.7756 8.67669 10.4124 8.67669 10.4124" fill="#F2D231"/>
<path d="M6.96588 7.66381C7.84472 8.17198 8.70799 7.90116 8.70799 7.90116C8.7093 7.36359 8.49665 6.96682 8.18217 6.67373C7.26905 6.14677 6.01562 6.14451 6.01562 6.14451C6.27263 6.86133 6.60929 7.34297 6.96588 7.66381" fill="#F2D231"/>
<path d="M13.9117 10.4843C12.6254 13.8089 10.2107 13.7118 9.39463 13.5728C9.39315 13.6135 9.39219 13.6546 9.39228 13.6963C9.39228 13.6963 12.7288 14.7441 14.2615 10.4695C14.2615 10.4695 14.1306 10.4698 13.9117 10.4843" fill="#0D6EFD"/>
<path d="M9.36535 10.5845C9.36335 10.626 9.3624 10.6681 9.36257 10.7109C9.36257 10.7109 12.1076 11.5729 13.3686 8.05606C13.3686 8.05606 13.2352 8.05632 13.0173 8.07267C11.9807 10.7057 10.077 10.6925 9.36535 10.5845" fill="#0D6EFD"/>
<path d="M9.33576 8.06875C9.33298 8.11154 9.33115 8.15494 9.33124 8.19973C9.33124 8.19973 11.4563 8.86698 12.4325 6.14452C12.4325 6.14452 12.2951 6.14477 12.0786 6.16417C11.3018 8.07954 9.92473 8.14094 9.33576 8.06875Z" fill="#0D6EFD"/>
<path d="M13.9117 10.4843C12.8117 10.5572 9.49076 10.9913 9.39465 13.5728C10.2107 13.7118 12.6254 13.8089 13.9117 10.4843Z" fill="#F2D231"/>
<path d="M9.3653 10.5845C10.077 10.6925 11.9806 10.7057 13.0172 8.07266C12.0585 8.14476 9.46236 8.5297 9.3653 10.5845Z" fill="#F2D231"/>
<path d="M9.33575 8.06876C9.92472 8.14094 11.3017 8.07954 12.0786 6.16417C11.2868 6.23488 9.43368 6.56181 9.33575 8.06876Z" fill="#F2D231"/>
<path d="M9.2307 2.84136C9.2307 2.84136 9.21705 2.86222 9.19383 2.90136C10.6709 5.06668 9.06841 6.39413 9.06841 6.39413C9.03998 6.37578 9.01258 6.357 8.98596 6.33795C9.06806 6.41761 9.16217 6.49258 9.2694 6.56172C9.2694 6.56172 10.9849 5.14096 9.2307 2.84136" fill="#0D6EFD"/>
<path d="M9.19381 2.90136C8.9729 3.26925 7.86688 5.25107 8.98594 6.33795C9.01256 6.357 9.03996 6.37578 9.0684 6.39413C9.0684 6.39413 10.6708 5.06669 9.19381 2.90136" fill="#F2D231"/>
</svg>
