<svg width="115" height="55" viewBox="0 0 115 55" fill="none" xmlns="http://www.w3.org/2000/svg">
<path d="M25.2808 25.4365C25.2808 29.7625 24.2945 33.2319 22.3218 35.8447C20.3665 38.4403 17.719 39.7381 14.3794 39.7381C11.5416 39.7381 9.24886 38.7518 7.50118 36.7791V51.9767H0V11.135H6.95611L7.21567 13.8863C9.03256 11.706 11.4032 10.6159 14.3275 10.6159C17.7883 10.6159 20.479 11.8963 22.3997 14.4573C24.3204 17.0182 25.2808 20.5482 25.2808 25.0472V25.4365ZM17.7796 24.8915C17.7796 22.2786 17.3124 20.2627 16.378 18.8438C15.4609 17.4249 14.1199 16.7154 12.3549 16.7154C10.0016 16.7154 8.38367 17.6152 7.50118 19.4148V30.9132C8.41828 32.7647 10.0535 33.6904 12.4068 33.6904C15.9887 33.6904 17.7796 30.7574 17.7796 24.8915Z" fill="#0D6EFD"/>
<path d="M35.743 39.219H28.2158V11.135H35.743V39.219ZM27.7746 3.86739C27.7746 2.74264 28.1466 1.81689 28.8907 1.09014C29.6521 0.363379 30.6816 0 31.9794 0C33.2599 0 34.2808 0.363379 35.0422 1.09014C35.8035 1.81689 36.1842 2.74264 36.1842 3.86739C36.1842 5.00944 35.7949 5.94384 35.0162 6.6706C34.2549 7.39735 33.2426 7.76073 31.9794 7.76073C30.7162 7.76073 29.6953 7.39735 28.9166 6.6706C28.1553 5.94384 27.7746 5.00944 27.7746 3.86739Z" fill="#0D6EFD"/>
<path d="M48.4374 33.1713H62.1679V39.219H38.8597V34.6508L52.0711 17.2086H39.2491V11.135H61.7526V15.5734L48.4374 33.1713Z" fill="#0D6EFD"/>
<path d="M73.3568 33.1713H87.0874V39.219H63.7792V34.6508L76.9906 17.2086H64.1685V11.135H86.6721V15.5734L73.3568 33.1713Z" fill="#0D6EFD"/>
<path d="M105.933 39.219C105.587 38.5441 105.336 37.7049 105.181 36.7013C103.364 38.7258 101.002 39.7381 98.0946 39.7381C95.3433 39.7381 93.0592 38.9421 91.2423 37.3502C89.4428 35.7582 88.543 33.751 88.543 31.3284C88.543 28.3522 89.6418 26.0681 91.8393 24.4762C94.0542 22.8842 97.2467 22.0796 101.417 22.0623H104.869V20.453C104.869 19.1553 104.532 18.117 103.857 17.3384C103.199 16.5597 102.152 16.1704 100.716 16.1704C99.453 16.1704 98.458 16.4732 97.7313 17.0788C97.0218 17.6844 96.6671 18.515 96.6671 19.5705H89.1659C89.1659 17.944 89.6677 16.4386 90.6713 15.0543C91.6749 13.67 93.0938 12.5885 94.928 11.8098C96.7622 11.0138 98.8214 10.6159 101.105 10.6159C104.566 10.6159 107.309 11.4897 109.333 13.2374C111.375 14.9677 112.396 17.4076 112.396 20.5569V32.7301C112.413 35.3948 112.786 37.4107 113.512 38.7777V39.219H105.933ZM99.7298 34.0019C100.837 34.0019 101.858 33.7596 102.793 33.2751C103.727 32.7733 104.419 32.1071 104.869 31.2765V26.4488H102.066C98.3109 26.4488 96.3124 27.7466 96.0701 30.3421L96.0441 30.7834C96.0441 31.7178 96.3729 32.4878 97.0305 33.0934C97.688 33.6991 98.5878 34.0019 99.7298 34.0019Z" fill="#0D6EFD"/>
<path d="M10.3563 47.9723C10.3563 47.1922 10.5065 46.4969 10.8069 45.8865C11.1072 45.276 11.5385 44.8036 12.1005 44.4693C12.6674 44.135 13.3239 43.9678 14.07 43.9678C15.1311 43.9678 15.9959 44.2924 16.6645 44.9417C17.338 45.5909 17.7135 46.4727 17.791 47.5871L17.8055 48.1249C17.8055 49.3313 17.4688 50.3003 16.7953 51.0319C16.1219 51.7587 15.2183 52.122 14.0845 52.122C12.9508 52.122 12.0448 51.7587 11.3665 51.0319C10.693 50.3051 10.3563 49.3168 10.3563 48.0667V47.9723ZM12.4566 48.1249C12.4566 48.871 12.5971 49.4427 12.8781 49.84C13.1591 50.2325 13.5613 50.4287 14.0845 50.4287C14.5933 50.4287 14.9906 50.2349 15.2764 49.8473C15.5623 49.4548 15.7052 48.8298 15.7052 47.9723C15.7052 47.2407 15.5623 46.6738 15.2764 46.2716C14.9906 45.8695 14.5884 45.6684 14.07 45.6684C13.5564 45.6684 13.1591 45.8695 12.8781 46.2716C12.5971 46.6689 12.4566 47.2867 12.4566 48.1249Z" fill="#6D747D"/>
<path d="M23.369 46.0827C23.0831 46.0439 22.8312 46.0245 22.6132 46.0245C21.8186 46.0245 21.2977 46.2934 21.0506 46.8312V51.9767H18.9503V44.1132H20.9344L20.9925 45.0507C21.414 44.3288 21.9979 43.9678 22.744 43.9678C22.9766 43.9678 23.1946 43.9993 23.3981 44.0623L23.369 46.0827Z" fill="#6D747D"/>
<path d="M23.7652 47.9868C23.7652 46.761 24.039 45.7847 24.5865 45.058C25.1388 44.3312 25.8922 43.9678 26.8467 43.9678C27.6122 43.9678 28.2445 44.2537 28.7435 44.8254V40.8137H30.8511V51.9767H28.9543L28.8525 51.1409C28.3293 51.795 27.6558 52.122 26.8322 52.122C25.9067 52.122 25.163 51.7587 24.601 51.0319C24.0438 50.3003 23.7652 49.2853 23.7652 47.9868ZM25.8656 48.1394C25.8656 48.8759 25.994 49.4403 26.2507 49.8328C26.5075 50.2252 26.8806 50.4214 27.37 50.4214C28.0192 50.4214 28.477 50.1477 28.7435 49.6002V46.4969C28.4819 45.9494 28.0289 45.6757 27.3845 45.6757C26.3719 45.6757 25.8656 46.4969 25.8656 48.1394Z" fill="#6D747D"/>
<path d="M35.9495 52.122C34.7964 52.122 33.8564 51.7684 33.1297 51.061C32.4077 50.3536 32.0468 49.4112 32.0468 48.2339V48.0304C32.0468 47.2407 32.1994 46.5357 32.5046 45.9155C32.8099 45.2905 33.2411 44.8109 33.7983 44.4765C34.3603 44.1374 34.9998 43.9678 35.7169 43.9678C36.7925 43.9678 37.638 44.307 38.2533 44.9853C38.8735 45.6636 39.1835 46.6253 39.1835 47.8705V48.7281H34.1762C34.244 49.2417 34.4475 49.6535 34.7867 49.9636C35.1307 50.2737 35.5643 50.4287 36.0876 50.4287C36.8967 50.4287 37.529 50.1356 37.9844 49.5493L39.0164 50.7049C38.7015 51.1506 38.2751 51.4995 37.7373 51.7514C37.1995 51.9985 36.6036 52.122 35.9495 52.122ZM35.7096 45.6684C35.293 45.6684 34.9538 45.8089 34.6922 46.09C34.4354 46.371 34.2707 46.7731 34.198 47.2964H37.1196V47.1292C37.1099 46.6641 36.9839 46.3056 36.7416 46.0536C36.4994 45.7968 36.1554 45.6684 35.7096 45.6684Z" fill="#6D747D"/>
<path d="M44.6525 46.0827C44.3667 46.0439 44.1147 46.0245 43.8967 46.0245C43.1021 46.0245 42.5813 46.2934 42.3342 46.8312V51.9767H40.2339V44.1132H42.2179L42.276 45.0507C42.6976 44.3288 43.2814 43.9678 44.0275 43.9678C44.2601 43.9678 44.4781 43.9993 44.6816 44.0623L44.6525 46.0827Z" fill="#6D747D"/>
<path d="M52.3492 50.4287C52.7368 50.4287 53.0517 50.3221 53.294 50.1089C53.5362 49.8957 53.6622 49.6123 53.6719 49.2586H55.6414C55.6366 49.7916 55.4912 50.2809 55.2054 50.7267C54.9195 51.1676 54.527 51.5116 54.028 51.7587C53.5338 52.0009 52.9863 52.122 52.3855 52.122C51.2615 52.122 50.3748 51.7659 49.7256 51.0537C49.0764 50.3366 48.7517 49.3482 48.7517 48.0885V47.9505C48.7517 46.7392 49.0739 45.7726 49.7183 45.0507C50.3627 44.3288 51.2469 43.9678 52.371 43.9678C53.3545 43.9678 54.1419 44.2488 54.733 44.8109C55.3289 45.368 55.6317 46.1118 55.6414 47.042H53.6719C53.6622 46.635 53.5362 46.3056 53.294 46.0536C53.0517 45.7968 52.732 45.6684 52.3347 45.6684C51.8453 45.6684 51.4747 45.8477 51.2227 46.2062C50.9756 46.5599 50.8521 47.1365 50.8521 47.9359V48.1539C50.8521 48.9631 50.9756 49.5445 51.2227 49.8982C51.4698 50.2519 51.8453 50.4287 52.3492 50.4287Z" fill="#6D747D"/>
<path d="M56.3647 47.9723C56.3647 47.1922 56.5149 46.4969 56.8153 45.8865C57.1157 45.276 57.5469 44.8036 58.1089 44.4693C58.6758 44.135 59.3323 43.9678 60.0784 43.9678C61.1395 43.9678 62.0043 44.2924 62.6729 44.9417C63.3464 45.5909 63.7219 46.4727 63.7994 47.5871L63.8139 48.1249C63.8139 49.3313 63.4772 50.3003 62.8038 51.0319C62.1303 51.7587 61.2267 52.122 60.0929 52.122C58.9592 52.122 58.0532 51.7587 57.3749 51.0319C56.7014 50.3051 56.3647 49.3168 56.3647 48.0667V47.9723ZM58.465 48.1249C58.465 48.871 58.6055 49.4427 58.8865 49.84C59.1675 50.2325 59.5697 50.4287 60.0929 50.4287C60.6017 50.4287 60.999 50.2349 61.2848 49.8473C61.5707 49.4548 61.7136 48.8298 61.7136 47.9723C61.7136 47.2407 61.5707 46.6738 61.2848 46.2716C60.999 45.8695 60.5968 45.6684 60.0784 45.6684C59.5648 45.6684 59.1675 45.8695 58.8865 46.2716C58.6055 46.6689 58.465 47.2867 58.465 48.1249Z" fill="#6D747D"/>
<path d="M66.9282 44.1132L66.9937 44.9925C67.5508 44.3094 68.3042 43.9678 69.2539 43.9678C70.2665 43.9678 70.9618 44.3675 71.3397 45.167C71.892 44.3675 72.6793 43.9678 73.7016 43.9678C74.5544 43.9678 75.1891 44.2173 75.6057 44.7164C76.0224 45.2106 76.2308 45.9567 76.2308 46.9548V51.9767H74.1232V46.9621C74.1232 46.5163 74.0359 46.1917 73.8615 45.9882C73.6871 45.7799 73.3794 45.6757 72.9385 45.6757C72.3087 45.6757 71.8726 45.9761 71.6304 46.5769L71.6376 51.9767H69.5373V46.9693C69.5373 46.5139 69.4477 46.1844 69.2684 45.9809C69.0891 45.7774 68.7839 45.6757 68.3527 45.6757C67.7568 45.6757 67.3255 45.9228 67.0591 46.417V51.9767H64.9587V44.1132H66.9282Z" fill="#6D747D"/>
<path d="M84.7812 48.1176C84.7812 49.3289 84.505 50.3003 83.9527 51.0319C83.4052 51.7587 82.6639 52.122 81.7288 52.122C80.9342 52.122 80.2923 51.8459 79.8029 51.2935V55H77.7026V44.1132H79.6503L79.723 44.8835C80.2317 44.2731 80.8955 43.9678 81.7143 43.9678C82.6833 43.9678 83.4367 44.3264 83.9745 45.0434C84.5123 45.7605 84.7812 46.7489 84.7812 48.0086V48.1176ZM82.6809 47.965C82.6809 47.2334 82.5501 46.6689 82.2884 46.2716C82.0316 45.8743 81.6561 45.6757 81.1619 45.6757C80.503 45.6757 80.05 45.9276 79.8029 46.4315V49.6511C80.0597 50.1695 80.5176 50.4287 81.1765 50.4287C82.1794 50.4287 82.6809 49.6075 82.6809 47.965Z" fill="#6D747D"/>
<path d="M85.6135 47.9723C85.6135 47.1922 85.7637 46.4969 86.0641 45.8865C86.3645 45.276 86.7957 44.8036 87.3577 44.4693C87.9246 44.135 88.5811 43.9678 89.3272 43.9678C90.3883 43.9678 91.2531 44.2924 91.9217 44.9417C92.5952 45.5909 92.9707 46.4727 93.0482 47.5871L93.0627 48.1249C93.0627 49.3313 92.726 50.3003 92.0526 51.0319C91.3791 51.7587 90.4755 52.122 89.3417 52.122C88.208 52.122 87.302 51.7587 86.6237 51.0319C85.9502 50.3051 85.6135 49.3168 85.6135 48.0667V47.9723ZM87.7138 48.1249C87.7138 48.871 87.8543 49.4427 88.1353 49.84C88.4163 50.2325 88.8185 50.4287 89.3417 50.4287C89.8505 50.4287 90.2478 50.2349 90.5336 49.8473C90.8195 49.4548 90.9624 48.8298 90.9624 47.9723C90.9624 47.2407 90.8195 46.6738 90.5336 46.2716C90.2478 45.8695 89.8456 45.6684 89.3272 45.6684C88.8136 45.6684 88.4163 45.8695 88.1353 46.2716C87.8543 46.6689 87.7138 47.2867 87.7138 48.1249Z" fill="#6D747D"/>
<path d="M98.4663 49.8037C98.4663 49.5469 98.3379 49.3458 98.0812 49.2005C97.8292 49.0503 97.4222 48.917 96.8602 48.8008C94.99 48.4083 94.0549 47.6137 94.0549 46.417C94.0549 45.7193 94.3432 45.1379 94.9198 44.6728C95.5012 44.2028 96.2594 43.9678 97.1945 43.9678C98.1926 43.9678 98.9896 44.2028 99.5855 44.6728C100.186 45.1427 100.487 45.7532 100.487 46.5042H98.3864C98.3864 46.2038 98.2895 45.9567 98.0957 45.7629C97.9019 45.5643 97.5991 45.4649 97.1872 45.4649C96.8336 45.4649 96.5598 45.5449 96.366 45.7048C96.1722 45.8647 96.0753 46.0681 96.0753 46.3152C96.0753 46.5478 96.1843 46.7368 96.4023 46.8821C96.6252 47.0226 96.9983 47.1462 97.5216 47.2528C98.0448 47.3545 98.4857 47.4708 98.8443 47.6016C99.9538 48.0086 100.509 48.7135 100.509 49.7165C100.509 50.4335 100.201 51.0149 99.5855 51.4607C98.9702 51.9016 98.1756 52.122 97.2018 52.122C96.5428 52.122 95.9566 52.0058 95.443 51.7732C94.9343 51.5358 94.5346 51.2136 94.2439 50.8066C93.9532 50.3948 93.8078 49.9515 93.8078 49.4766H95.7991C95.8185 49.8497 95.9566 50.1356 96.2134 50.3342C96.4702 50.5329 96.8142 50.6322 97.2454 50.6322C97.6475 50.6322 97.9503 50.5571 98.1538 50.4069C98.3622 50.2519 98.4663 50.0508 98.4663 49.8037Z" fill="#6D747D"/>
<path d="M105.338 52.122C104.185 52.122 103.245 51.7684 102.518 51.061C101.796 50.3536 101.435 49.4112 101.435 48.2339V48.0304C101.435 47.2407 101.588 46.5357 101.893 45.9155C102.198 45.2905 102.63 44.8109 103.187 44.4765C103.749 44.1374 104.388 43.9678 105.105 43.9678C106.181 43.9678 107.026 44.307 107.642 44.9853C108.262 45.6636 108.572 46.6253 108.572 47.8705V48.7281H103.565C103.633 49.2417 103.836 49.6535 104.175 49.9636C104.519 50.2737 104.953 50.4287 105.476 50.4287C106.285 50.4287 106.917 50.1356 107.373 49.5493L108.405 50.7049C108.09 51.1506 107.664 51.4995 107.126 51.7514C106.588 51.9985 105.992 52.122 105.338 52.122ZM105.098 45.6684C104.681 45.6684 104.342 45.8089 104.081 46.09C103.824 46.371 103.659 46.7731 103.586 47.2964H106.508V47.1292C106.498 46.6641 106.372 46.3056 106.13 46.0536C105.888 45.7968 105.544 45.6684 105.098 45.6684Z" fill="#6D747D"/>
<path d="M114.041 46.0827C113.755 46.0439 113.503 46.0245 113.285 46.0245C112.491 46.0245 111.97 46.2934 111.723 46.8312V51.9767H109.622V44.1132H111.606L111.665 45.0507C112.086 44.3288 112.67 43.9678 113.416 43.9678C113.649 43.9678 113.867 43.9993 114.07 44.0623L114.041 46.0827Z" fill="#6D747D"/>
</svg>
